# xmcd
#
# Track frame offsets:
#	150
#	13705
#	27540
#	37895
#	49472
#	63637
#	77597
#	91385
#	104527
#	116585
#	136105
#	149677
#	168087
#	181007
#	196090
#
# Disc length: 2772 seconds
#
# Revision: 0
# Processed by: cddbd v1.4PL0 Copyright (c) Steve Scherf et al.
# Submitted via: dBpowerAMP V4.0
#
DISCID=c80ad20f
DTITLE=Various Artist - Real Country Disc 2
DYEAR=1900
DGENRE=Country
TTITLE0=Billy Swan - I Can Help
TTITLE1=Willie Nelson - My Heroes Have Always Been Cowboys
TTITLE2=Kris Kristofferson - Help Me Make It Through The Night
TTITLE3=Charlie Rich - The Most Beautiful Girl
TTITLE4=Lynn Anderson - Cry
TTITLE5=George Jones - The Grand Tour
TTITLE6=Barbara Fairchild - The Teddy Bear Song
TTITLE7=Merle Haggard - To All The Girls I've Loved Before
TTITLE8=Frankie Laine - High Noon
TTITLE9=Marty Robbins - El Paso
TTITLE10=Flatt and Scruggs - Dueling Banjos
TTITLE11=Bobby Bare - Numbers
TTITLE12=Charly McClain - Band Of Gold
TTITLE13=Dolly Parton - Country Road
TTITLE14=Tammy Wynette - Stand By Your Man
EXTD=
EXTT0=
EXTT1=
EXTT2=
EXTT3=
EXTT4=
EXTT5=
EXTT6=
EXTT7=
EXTT8=
EXTT9=
EXTT10=
EXTT11=
EXTT12=
EXTT13=
EXTT14=
PLAYORDER=
